{
  "accessors": [
    {
      "bufferView": 2,
      "componentType": 5126,
      "count": 1212,
      "max": [
        3.193369150161743,
        1.4203968048095703,
        2.2991127967834473
      ],
      "min": [
        -3.1933693885803223,
        -11.087182998657227,
        -2.2991127967834473
      ],
      "type": "VEC3"
    },
    {
      "bufferView": 2,
      "byteOffset": 14544,
      "componentType": 5126,
      "count": 1212,
      "max": [
        1.0,
        1.0,
        1.0
      ],
      "min": [
        -1.0,
        -1.0,
        -1.0
      ],
      "type": "VEC3"
    },
    {
      "bufferView": 3,
      "componentType": 5126,
      "count": 1212,
      "max": [
        1.0,
        0.9993323683738708,
        1.0,
        1.0
      ],
      "min": [
        -1.0,
        -0.9765213131904602,
        -1.0,
        -1.0
      ],
      "type": "VEC4"
    },
    {
      "bufferView": 1,
      "componentType": 5126,
      "count": 1212,
      "max": [
        0.9951171875,
        0.9368915557861328
      ],
      "min": [
        0.0048828125,
        0.0048828125
      ],
      "type": "VEC2"
    },
    {
      "bufferView": 0,
      "componentType": 5125,
      "count": 5448,
      "type": "SCALAR"
    },
    {
      "bufferView": 2,
      "byteOffset": 29088,
      "componentType": 5126,
      "count": 1192,
      "max": [
        3.193369150161743,
        -3.138859748840332,
        2.2991127967834473
      ],
      "min": [
        -3.1933693885803223,
        -11.08553409576416,
        -2.2991127967834473
      ],
      "type": "VEC3"
    },
    {
      "bufferView": 2,
      "byteOffset": 43392,
      "componentType": 5126,
      "count": 1192,
      "max": [
        1.0,
        0.9999994039535522,
        1.0
      ],
      "min": [
        -1.0,
        -1.0,
        -1.0
      ],
      "type": "VEC3"
    },
    {
      "bufferView": 1,
      "byteOffset": 9696,
      "componentType": 5126,
      "count": 1192,
      "max": [
        1.0,
        1.0
      ],
      "min": [
        0.0,
        0.0
      ],
      "type": "VEC2"
    },
    {
      "bufferView": 0,
      "byteOffset": 21792,
      "componentType": 5125,
      "count": 4056,
      "type": "SCALAR"
    },
    {
      "bufferView": 2,
      "byteOffset": 57696,
      "componentType": 5126,
      "count": 4560,
      "max": [
        2.60396671295166,
        3.5090019702911377,
        1.9153956174850464
      ],
      "min": [
        -1.9293946027755737,
        -2.992847204208374,
        -1.9429407119750977
      ],
      "type": "VEC3"
    },
    {
      "bufferView": 2,
      "byteOffset": 112416,
      "componentType": 5126,
      "count": 4560,
      "max": [
        0.9086642265319824,
        0.9776003360748291,
        0.9086639881134033
      ],
      "min": [
        -0.9086641073226929,
        -0.9776003360748291,
        -0.9086642265319824
      ],
      "type": "VEC3"
    },
    {
      "bufferView": 1,
      "byteOffset": 19232,
      "componentType": 5126,
      "count": 4560,
      "max": [
        1.0,
        1.0
      ],
      "min": [
        0.0,
        0.0
      ],
      "type": "VEC2"
    },
    {
      "bufferView": 0,
      "byteOffset": 38016,
      "componentType": 5125,
      "count": 6384,
      "type": "SCALAR"
    }
  ],
  "asset": {
    "extras": {
      "author": "Aarondraws8 (https://sketchfab.com/Aarondraws8)",
      "license": "CC-BY-4.0 (http://creativecommons.org/licenses/by/4.0/)",
      "source": "https://sketchfab.com/3d-models/hand-sanitizer-5ca4e17948fe40d1a73359116309ee1f",
      "title": "Hand-sanitizer"
    },
    "generator": "Sketchfab-12.67.0",
    "version": "2.0"
  },
  "bufferViews": [
    {
      "buffer": 0,
      "byteLength": 63552,
      "name": "floatBufferViews",
      "target": 34963
    },
    {
      "buffer": 0,
      "byteLength": 55712,
      "byteOffset": 63552,
      "byteStride": 8,
      "name": "floatBufferViews",
      "target": 34962
    },
    {
      "buffer": 0,
      "byteLength": 167136,
      "byteOffset": 119264,
      "byteStride": 12,
      "name": "floatBufferViews",
      "target": 34962
    },
    {
      "buffer": 0,
      "byteLength": 19392,
      "byteOffset": 286400,
      "byteStride": 16,
      "name": "floatBufferViews",
      "target": 34962
    }
  ],
  "buffers": [
    {
      "byteLength": 305792,
      "uri": "scene.bin"
    }
  ],
  "extensionsUsed": [
    "KHR_materials_transmission"
  ],
  "images": [
    {
      "uri": "textures/aiLayerShader2_baseColor.png"
    },
    {
      "uri": "textures/aiLayerShader2_metallicRoughness.png"
    },
    {
      "uri": "textures/aiLayerShader2_normal.png"
    },
    {
      "uri": "textures/aiLayerShader2_transmission.png"
    }
  ],
  "materials": [
    {
      "alphaMode": "BLEND",
      "doubleSided": true,
      "extensions": {
        "KHR_materials_transmission": {
          "transmissionFactor": 1.0,
          "transmissionTexture": {
            "index": 3
          }
        }
      },
      "name": "aiLayerShader2",
      "normalTexture": {
        "index": 2
      },
      "pbrMetallicRoughness": {
        "baseColorTexture": {
          "index": 0
        },
        "metallicFactor": 0.0,
        "metallicRoughnessTexture": {
          "index": 1
        }
      }
    },
    {
      "alphaMode": "BLEND",
      "doubleSided": true,
      "name": "liquid",
      "pbrMetallicRoughness": {
        "baseColorFactor": [
          1.0,
          1.0,
          1.0,
          0.6705290966686731
        ],
        "metallicFactor": 0.0,
        "roughnessFactor": 0.6
      }
    }
  ],
  "meshes": [
    {
      "name": "bottle_main_aiLayerShader2_0",
      "primitives": [
        {
          "attributes": {
            "NORMAL": 1,
            "POSITION": 0,
            "TANGENT": 2,
            "TEXCOORD_0": 3
          },
          "indices": 4,
          "material": 0,
          "mode": 4
        }
      ]
    },
    {
      "name": "fill_liquid_0",
      "primitives": [
        {
          "attributes": {
            "NORMAL": 6,
            "POSITION": 5,
            "TEXCOORD_0": 7
          },
          "indices": 8,
          "material": 1,
          "mode": 4
        }
      ]
    },
    {
      "name": "bubbles_liquid_0",
      "primitives": [
        {
          "attributes": {
            "NORMAL": 10,
            "POSITION": 9,
            "TEXCOORD_0": 11
          },
          "indices": 12,
          "material": 1,
          "mode": 4
        }
      ]
    }
  ],
  "nodes": [
    {
      "children": [
        1
      ],
      "matrix": [
        1.0,
        0.0,
        0.0,
        0.0,
        0.0,
        2.220446049250313e-16,
        -1.0,
        0.0,
        0.0,
        1.0,
        2.220446049250313e-16,
        0.0,
        0.0,
        0.0,
        0.0,
        1.0
      ],
      "name": "Sketchfab_model"
    },
    {
      "children": [
        2
      ],
      "matrix": [
        1.0,
        0.0,
        0.0,
        0.0,
        0.0,
        0.0,
        1.0,
        0.0,
        0.0,
        -1.0,
        0.0,
        0.0,
        0.0,
        0.0,
        0.0,
        1.0
      ],
      "name": "db7efcd93dd44c7cbd62309d33c551bc.fbx"
    },
    {
      "children": [
        3
      ],
      "name": "RootNode"
    },
    {
      "children": [
        4,
        6,
        8
      ],
      "name": "group1"
    },
    {
      "children": [
        5
      ],
      "matrix": [
        1.0,
        0.0,
        0.0,
        0.0,
        0.0,
        1.0,
        0.0,
        0.0,
        0.0,
        0.0,
        1.0,
        0.0,
        0.0,
        7.455206871032715,
        0.0,
        1.0
      ],
      "name": "bottle_main"
    },
    {
      "mesh": 0,
      "name": "bottle_main_aiLayerShader2_0"
    },
    {
      "children": [
        7
      ],
      "matrix": [
        0.9745113253593445,
        0.0,
        0.0,
        0.0,
        0.0,
        0.9745113253593445,
        0.0,
        0.0,
        0.0,
        0.0,
        0.9745113253593445,
        0.0,
        -3.0384854632359293e-09,
        7.332009792327881,
        0.0,
        1.0
      ],
      "name": "fill"
    },
    {
      "mesh": 1,
      "name": "fill_liquid_0"
    },
    {
      "children": [
        9
      ],
      "name": "bubbles"
    },
    {
      "mesh": 2,
      "name": "bubbles_liquid_0"
    }
  ],
  "samplers": [
    {
      "magFilter": 9729,
      "minFilter": 9987,
      "wrapS": 10497,
      "wrapT": 10497
    }
  ],
  "scene": 0,
  "scenes": [
    {
      "name": "Sketchfab_Scene",
      "nodes": [
        0
      ]
    }
  ],
  "textures": [
    {
      "sampler": 0,
      "source": 0
    },
    {
      "sampler": 0,
      "source": 1
    },
    {
      "sampler": 0,
      "source": 2
    },
    {
      "sampler": 0,
      "source": 3
    }
  ]
}
